<svg xmlns="http://www.w3.org/2000/svg" xmlns:xlink="http://www.w3.org/1999/xlink" width="15" height="25" viewBox="0 0 15 25"><defs><path id="a" d="M325.52 503.66a6.05 6.05 0 0 1-4.49-1.88 6.17 6.17 0 0 1-1.84-4.48c0-1.74.61-3.22 1.84-4.45a6.1 6.1 0 0 1 4.49-1.85 6.1 6.1 0 0 1 4.48 1.85 6.07 6.07 0 0 1 1.84 4.45c0 1.74-.61 3.23-1.84 4.48a6.05 6.05 0 0 1-4.48 1.88zm0-9.44a3 3 0 0 0-2.2.91 3 3 0 0 0-.91 2.2 3 3 0 0 0 .9 2.2 3 3 0 0 0 2.2.9 3 3 0 0 0 2.2-.9 3 3 0 0 0 .91-2.2 3 3 0 0 0-.9-2.2 3 3 0 0 0-2.2-.9zm7.26 10.2c.31.58.33 1.06.06 1.43-.27.37-.84.85-1.7 1.44-1.05.66-2.52 1.1-4.4 1.29l4.75 4.74c.28.28.41.62.41 1.03 0 .41-.13.75-.4 1.02l-.18.18c-.32.27-.67.41-1.06.41s-.72-.14-1-.4a152.3 152.3 0 0 1-3.74-3.76l-3.7 3.75a1.4 1.4 0 0 1-1.02.41 1.4 1.4 0 0 1-1.03-.4l-.17-.18a1.4 1.4 0 0 1-.41-1.03c0-.41.13-.75.4-1.03l4.75-4.74a9.7 9.7 0 0 1-4.45-1.3 7.45 7.45 0 0 1-1.7-1.43c-.27-.37-.25-.85.06-1.43.2-.43.5-.7.94-.8.43-.1 1 .08 1.7.5a6 6 0 0 0 1.96 1c.76.24 1.4.35 1.9.35l.77.06c1.91 0 3.45-.47 4.62-1.4.7-.43 1.27-.6 1.7-.5.43.1.75.36.94.79z"/></defs><use fill="#329af0" xlink:href="#a" transform="translate(-318 -491)"/></svg>