<svg xmlns="http://www.w3.org/2000/svg" xmlns:xlink="http://www.w3.org/1999/xlink" width="33" height="19" viewBox="0 0 33 19"><defs><path id="a" d="M244.1 495.35c.28.7-.56 2.35-2.51 4.93-.27.35-.63.82-1.05 1.4-.9 1.1-1.41 1.82-1.53 2.17-.2.47-.12.92.24 1.35.2.23.64.7 1.34 1.4h.06v.06a15.36 15.36 0 0 1 3.23 3.7l.11.23c.04.08.08.22.12.44.04.21.04.4 0 .55-.04.16-.18.3-.41.44a2 2 0 0 1-1 .2l-4.27.13c-.28.04-.6 0-.97-.12a4.13 4.13 0 0 1-.85-.35l-.35-.24a6.75 6.75 0 0 1-1.17-1.05c-.43-.47-.81-.9-1.15-1.3-.33-.38-.67-.7-1.02-.96-.35-.25-.67-.34-.94-.26a.28.28 0 0 0-.15.06 2.41 2.41 0 0 0-.64.76c-.1.2-.19.48-.26.85-.08.37-.12.8-.12 1.32a1.93 1.93 0 0 1-.18.76l-.06.06c-.23.23-.54.35-.93.35h-1.88a6.8 6.8 0 0 1-2.49-.24 9.06 9.06 0 0 1-2.2-.9 21.4 21.4 0 0 1-1.7-1.12c-.5-.37-.9-.69-1.17-.96l-.4-.41a2.57 2.57 0 0 1-.48-.47c-.2-.24-.6-.74-1.2-1.53a37.99 37.99 0 0 1-3.83-6.06 57.12 57.12 0 0 1-2.17-4.54c-.08-.2-.12-.35-.12-.47s.02-.21.06-.3l.06-.05c.15-.24.47-.35.93-.35h4.63c.12 0 .24.03.36.08l.29.15.06.06c.2.12.33.3.4.53a41.64 41.64 0 0 0 1.47 3.1l.24.47c.35.67.67 1.24.96 1.73.3.49.56.87.8 1.14.23.28.46.5.7.65.23.15.43.23.58.23.16 0 .32-.02.47-.06l.06-.09c.04-.05.1-.18.2-.38s.18-.45.24-.76.1-.76.15-1.35c.04-.58.04-1.28 0-2.1-.04-.43-.1-.83-.18-1.2a3.6 3.6 0 0 0-.23-.8l-.06-.17c-.28-.4-.76-.65-1.47-.76-.11 0-.08-.14.12-.41.2-.2.41-.36.64-.47.59-.32 1.92-.45 3.99-.41.9 0 1.66.07 2.28.23.2.04.37.1.53.2.16.1.27.24.35.42a2.78 2.78 0 0 1 .24 1.29v.9c-.04.32-.06.7-.06 1.18v1.4l-.03.7-.03.82c0 .2.02.42.06.68.04.25.1.47.2.64a.9.9 0 0 0 .65.47c.1.02.24-.04.44-.17.2-.14.4-.34.64-.59.24-.25.53-.63.88-1.14.35-.51.72-1.1 1.11-1.76a31.28 31.28 0 0 0 1.82-3.8l.15-.27c.06-.1.12-.17.2-.2h.06l.06-.07.23-.05h.36l4.8-.06c.43-.04.8-.02 1.08.06.3.07.46.17.5.29z"/></defs><use fill="#329af0" xlink:href="#a" transform="translate(-212 -494)"/></svg>