<?xml version="1.0" encoding="utf-8"?>
<!-- Generator: Adobe Illustrator 21.0.2, SVG Export Plug-In . SVG Version: 6.00 Build 0)  -->
<svg version="1.1" id="Layer_1" xmlns="http://www.w3.org/2000/svg" xmlns:xlink="http://www.w3.org/1999/xlink" x="0px" y="0px"
	 viewBox="0 0 1218.2 424.8" style="enable-background:new 0 0 1218.2 424.8;" xml:space="preserve">
<style type="text/css">
	.st0{fill:#BB882E;}
	.st1{fill:none;}
	.st2{fill:#333333;}
</style>
<g>
	<g>
		<path class="st0" d="M295.9,373.6l-24.7-98.4l-3.5,2c-16.7,9.8-35.9,15.1-55.4,15.1c-19.5,0-38.6-5.2-55.4-15.1l-3.5-2l-24.7,98.4
			c-1,4-1.7,8.1-2.1,12.2l-0.2,2.1l1.9,0.9c26.3,12.6,54.6,19,83.9,19c29.4,0,57.6-6.4,84-19l1.9-0.9l-0.2-2.1
			C297.6,381.7,296.9,377.6,295.9,373.6z"/>
		<path class="st0" d="M318.4,155l1.2,4.4l3.6-2.8c9.5-7.4,14.9-18.6,14.9-30.7c0-21.5-17.5-39-39-39c-6.5,0-13,1.6-18.6,4.7l-4,2.2
			l3.6,2.8C298.7,111.3,312.4,132.1,318.4,155z"/>
		<path class="st0" d="M114,182.8c0,54.3,44.2,98.4,98.4,98.4c54.3,0,98.4-44.2,98.4-98.4c0-54.3-44.2-98.4-98.4-98.4
			C158.1,84.3,114,128.5,114,182.8z M204.7,212.9h15.4c3.1,0,5.6,2.5,5.6,5.6s-2.5,5.6-5.6,5.6h-15.4c-3.1,0-5.6-2.5-5.6-5.6
			S201.6,212.9,204.7,212.9z M167.7,201.3c0,3.1-2.5,5.6-5.6,5.6c-3.1,0-5.6-2.5-5.6-5.6c0-3.1,2.5-5.6,5.6-5.6
			C165.2,195.8,167.7,198.3,167.7,201.3z M257.1,201.3c0-3.1,2.5-5.6,5.6-5.6c3.1,0,5.6,2.5,5.6,5.6c0,3.1-2.5,5.6-5.6,5.6
			C259.6,206.9,257.1,204.4,257.1,201.3z"/>
		<path class="st0" d="M101.7,156.6l3.6,2.8l1.2-4.4c6-22.9,19.7-43.7,38.4-58.4l3.6-2.8l-4-2.2c-5.7-3.1-12.1-4.7-18.6-4.7
			c-21.5,0-39,17.5-39,39C86.8,138,92.2,149.2,101.7,156.6z"/>
		<path class="st0" d="M61.1,329.6c-0.2,0.1-0.4,0.2-0.6,0.4c-3.3,2.1-6,4.9-8,8.3c-1.2,2-2.1,4.3-2.7,6.6c-0.6,2.3-0.8,4.6-0.7,6.9
			c0.2,4.2,1.4,8.3,3.6,11.9c4.3,7.1,11.8,11.5,20.2,11.9c0.4,0,0.7,0,1,0c4.4,0,8.7-1.2,12.5-3.4l37-22.4l17.1-68.3L61.1,329.6z"/>
		<path class="st0" d="M377,349.9c-0.1-1.7-0.3-3.4-0.7-5.1c-0.7-2.7-1.8-5.3-3.3-7.7c-2-3.1-4.7-5.6-7.9-7.6l-81-49.1l17.1,68.3
			l28.6,17.3l9.7,5.9c3.7,2.2,8,3.5,12.3,3.6c0.2,0,0.4,0,0.6,0c8.6,0,16.7-4.5,21.2-11.9C376,359.4,377.2,354.7,377,349.9z"/>
	</g>
	<g>
		<path class="st1" d="M109.3,374.8c1.4,0.9,2.8,1.8,4.3,2.7c0.3-2,0.8-4,1.2-6L109.3,374.8z"/>
	</g>
	<g>
		<path class="st1" d="M137.5,266.8c-23.1-20.6-37.7-50.6-37.7-84c0-3.4,0.2-6.9,0.5-10.2c-17-9.2-27.7-26.9-27.7-46.7
			c0-29.3,23.8-53.2,53.2-53.2c12,0,23.4,4,32.7,11.3c16-8.8,34.4-13.8,53.9-13.8c19.5,0,37.9,5,53.9,13.8
			c9.3-7.3,20.7-11.3,32.7-11.3c29.3,0,53.2,23.9,53.2,53.2c0,19.8-10.7,37.4-27.7,46.7c0.3,3.4,0.5,6.8,0.5,10.2
			c0,33.1-14.3,62.9-37.1,83.5l84.6,51.2c0.3,0.2,0.5,0.3,0.7,0.5c20-30.3,31.6-66.6,31.6-105.6C404.8,106.3,318.5,20,212.4,20
			C106.3,20,20,106.3,20,212.4c0,39.2,11.8,75.7,32,106.2c0.6-0.4,1.1-0.7,1.7-1.1L137.5,266.8z"/>
	</g>
	<g>
		<path class="st1" d="M311.1,377.5c1.7-1,3.3-2,5-3.1l-6.4-3.9C310.3,372.8,310.7,375.1,311.1,377.5z"/>
	</g>
	<g>
		<polygon class="st0" points="387.9,335 387.9,335 387.9,335.1 		"/>
	</g>
	<g>
		<path class="st0" d="M390.9,346.2C390.9,346.3,390.9,346.3,390.9,346.2C390.9,346.3,390.9,346.3,390.9,346.2z"/>
	</g>
	<g>
		<path class="st0" d="M386.5,369.3c-0.3,0.5-0.6,1.1-0.9,1.6C385.9,370.4,386.2,369.9,386.5,369.3z"/>
	</g>
	<g>
		<path class="st0" d="M391.1,348C391.1,348,391.1,348,391.1,348C391.1,348,391.1,348,391.1,348z"/>
	</g>
	<g>
		<path class="st0" d="M388.1,366.1c-0.1,0.3-0.3,0.6-0.4,0.9C387.8,366.7,387.9,366.4,388.1,366.1z"/>
	</g>
	<g>
		<path class="st0" d="M389.3,362.7c-0.1,0.3-0.2,0.5-0.3,0.8C389.1,363.3,389.2,363,389.3,362.7z"/>
	</g>
	<g>
		<path class="st0" d="M387.3,367.7c-0.2,0.4-0.4,0.7-0.5,1.1C386.9,368.4,387.1,368.1,387.3,367.7z"/>
	</g>
	<g>
		<path class="st0" d="M388.7,364.4c-0.1,0.3-0.2,0.6-0.3,0.9C388.5,365,388.6,364.7,388.7,364.4z"/>
	</g>
	<g>
		<path class="st0" d="M389.8,361.1c-0.1,0.2-0.1,0.5-0.2,0.7C389.7,361.5,389.7,361.3,389.8,361.1z"/>
	</g>
	<g>
		<path class="st0" d="M390.2,359.4c0,0.2-0.1,0.4-0.1,0.6C390.1,359.8,390.2,359.6,390.2,359.4z"/>
	</g>
	<g>
		<path class="st0" d="M390.5,357.9c0,0.1,0,0.2,0,0.3C390.5,358.1,390.5,358,390.5,357.9z"/>
	</g>
	<g>
		<path class="st2" d="M387.3,367.7c0.1-0.2,0.2-0.5,0.3-0.7c0.1-0.3,0.3-0.6,0.4-0.9c0.1-0.3,0.2-0.5,0.3-0.8
			c0.1-0.3,0.2-0.6,0.3-0.9c0.1-0.3,0.2-0.6,0.3-0.9c0.1-0.3,0.2-0.5,0.3-0.8c0.1-0.3,0.2-0.6,0.3-1c0.1-0.2,0.1-0.5,0.2-0.7
			c0.1-0.4,0.2-0.7,0.3-1.1c0-0.2,0.1-0.4,0.1-0.6c0.1-0.4,0.2-0.8,0.3-1.2c0-0.1,0-0.2,0-0.3c0.6-3.3,0.8-6.6,0.6-9.9c0,0,0,0,0,0
			c0-0.6-0.1-1.1-0.2-1.7c0,0,0,0,0,0c-0.2-1.6-0.5-3.2-0.9-4.7c-0.5-2.2-1.3-4.4-2.2-6.4c0,0,0,0,0,0c-0.3-0.6-0.6-1.2-0.9-1.9
			c23.8-34.3,37.8-76,37.8-120.8C424.8,95.3,329.5,0,212.4,0C95.3,0,0,95.3,0,212.4c0,45.3,14.3,87.4,38.6,122
			c-1.1,2.3-1.9,4.7-2.5,7.1c-2.5,10.1-0.9,20.6,4.5,29.5c7.3,12.1,20.2,18.7,33.4,18.7c5.5,0,11.1-1.2,16.3-3.6
			c34.6,24.4,76.7,38.7,122.1,38.7c45.7,0,88-14.5,122.7-39.1c5.5,2.7,11.3,4,17.1,4c13.2,0,26-6.7,33.3-18.7
			c0.3-0.5,0.6-1.1,0.9-1.6c0.1-0.2,0.2-0.4,0.3-0.6C386.9,368.4,387.1,368.1,387.3,367.7z M20,212.4C20,106.3,106.3,20,212.4,20
			c106.1,0,192.4,86.3,192.4,192.4c0,39-11.6,75.3-31.6,105.6c-0.2-0.2-0.5-0.3-0.7-0.5l-84.6-51.2c22.8-20.6,37.1-50.4,37.1-83.5
			c0-3.5-0.2-6.9-0.5-10.2c17-9.2,27.7-26.9,27.7-46.7c0-29.3-23.8-53.2-53.2-53.2c-12,0-23.4,4-32.7,11.3
			c-16-8.8-34.4-13.8-53.9-13.8c-19.5,0-37.9,5-53.9,13.8c-9.3-7.3-20.7-11.3-32.7-11.3c-29.3,0-53.2,23.9-53.2,53.2
			c0,19.8,10.7,37.4,27.7,46.7c-0.3,3.4-0.5,6.8-0.5,10.2c0,33.3,14.6,63.3,37.7,84l-83.8,50.7c-0.6,0.3-1.1,0.7-1.7,1.1
			C31.8,288.1,20,251.6,20,212.4z M212.4,87.3c52.6,0,95.4,42.8,95.4,95.4s-42.8,95.4-95.4,95.4S117,235.4,117,182.8
			S159.8,87.3,212.4,87.3z M103.5,154.2c-8.6-6.7-13.7-17-13.7-28.3c0-19.9,16.2-36,36-36c6.1,0,12,1.5,17.2,4.3
			C123.9,109.2,109.8,130.1,103.5,154.2z M281.8,94.2c5.2-2.8,11.1-4.3,17.2-4.3c19.9,0,36,16.2,36,36c0,11.3-5.2,21.6-13.7,28.3
			C315,130.1,300.8,109.2,281.8,94.2z M155.5,279.9c16.7,9.8,36.2,15.5,56.9,15.5c20.8,0,40.2-5.6,56.9-15.5l23.7,94.5
			c1,3.9,1.7,7.8,2.1,11.8c-25,12-53.1,18.7-82.7,18.7c-29.6,0-57.6-6.7-82.7-18.7c0.4-3.9,1.1-7.8,2.1-11.8L155.5,279.9z
			 M85.1,369.4c-0.1,0.1-0.2,0.1-0.3,0.2c-3.7,2.2-7.8,3.1-11.9,2.9c-7-0.3-13.8-4-17.7-10.5c-2-3.2-3-6.8-3.2-10.4
			c-0.1-2,0.1-4,0.6-6c0.5-2.1,1.3-4,2.3-5.8c1.7-2.9,4.1-5.5,7.1-7.3c0.2-0.1,0.3-0.2,0.5-0.3l73.2-44.3l-15,60L94.1,364
			L85.1,369.4z M109.3,374.8l5.5-3.4c-0.5,2-0.9,4-1.2,6C112.2,376.6,110.8,375.7,109.3,374.8z M311.1,377.5c-0.4-2.3-0.9-4.7-1.5-7
			l6.4,3.9C314.5,375.4,312.8,376.5,311.1,377.5z M370.9,362c-4.2,6.9-11.6,10.6-19.1,10.5c-3.7-0.1-7.4-1.1-10.8-3.1l-0.5-0.3
			l-9.2-5.6l-27.6-16.7l-15-60l74.4,45l0.5,0.3c2.8,1.7,5.2,4,6.9,6.6c1.3,2,2.3,4.3,2.9,6.8c0.4,1.5,0.6,3,0.6,4.4
			C374.2,354.2,373.1,358.4,370.9,362z"/>
	</g>
	<g>
		<path class="st2" d="M204.7,227.1h15.4c4.7,0,8.6-3.8,8.6-8.6s-3.8-8.6-8.6-8.6h-15.4c-4.7,0-8.6,3.8-8.6,8.6
			S199.9,227.1,204.7,227.1z"/>
	</g>
	<g>
		<circle class="st2" cx="262.7" cy="201.3" r="8.6"/>
	</g>
	<g>
		<circle class="st2" cx="162.1" cy="201.3" r="8.6"/>
	</g>
	<g>
		<g>
			<path class="st2" d="M535.2,91.2h-46.3c-7.7,0-12.1,4.4-12.1,11v56.2c0,6.6,4.4,11,12.1,11c7.7,0,12.1-4.4,12.1-11v-45.2h22v45.2
				c0,6.6,4.4,11,12.1,11c7.7,0,12.1-4.4,12.1-11v-56.2C547.3,95.6,542.9,91.2,535.2,91.2z"/>
		</g>
		<g>
			<path class="st2" d="M620.1,91.2H581c-7.7,0-12.1,4.4-12.1,11v26.4c0,25.3-15.4,19.8-15.4,30.8c0,6.6,4.4,11,11,11
				c14.3,0,28.6-14.3,28.6-41.9v-15.4H608v45.2c0,6.6,4.4,11,12.1,11s12.1-4.4,12.1-11v-56.2C632.2,95.6,627.8,91.2,620.1,91.2z"/>
		</g>
		<g>
			<path class="st2" d="M714.9,89c-21,0-34.3,12.8-34.7,30.8h-9.4v-18.7c0-6.6-4.4-11-12.1-11c-7.7,0-12.1,4.4-12.1,11v57.3
				c0,6.6,4.4,11,12.1,11c7.7,0,12.1-4.4,12.1-11v-17.6h9.4c1,17.6,14.1,29.8,34.7,29.8c21.5,0,34.7-13.2,34.7-32v-17.6
				C749.6,102.2,736.4,89,714.9,89z M724.8,138.6c0,8.8-4.4,13.2-9.9,13.2c-5.5,0-9.9-4.4-9.9-13.2v-17.6c0-8.8,4.4-13.2,9.9-13.2
				c5.5,0,9.9,4.4,9.9,13.2V138.6z"/>
		</g>
		<g>
			<path class="st2" d="M856,90.1c-7.7,0-12.1,4.4-12.1,11v45.2h-17.1v-45.2c0-6.6-4.4-11-12.1-11c-7.7,0-12.1,4.4-12.1,11v45.2
				h-17.1v-45.2c0-6.6-4.4-11-12.1-11c-7.7,0-12.1,4.4-12.1,11v56.2c0,6.6,4.4,11,12.1,11H856c7.7,0,12.1-4.4,12.1-11v-56.2
				C868.1,94.5,863.7,90.1,856,90.1z"/>
		</g>
		<g>
			<path class="st2" d="M937.6,146.3h-30.8v-6.6h20.9c6.6,0,11-4.4,11-9.9c0-5.5-4.4-9.9-11-9.9h-20.9v-6.6h29.7
				c7.7,0,12.1-4.4,12.1-11c0-6.6-4.4-11-12.1-11h-41.9c-7.7,0-12.1,4.4-12.1,11v55.1c0,6.6,4.4,11,12.1,11h43
				c7.7,0,12.1-4.4,12.1-11C949.7,150.7,945.3,146.3,937.6,146.3z"/>
		</g>
		<g>
			<path class="st2" d="M1012,127.5v-1.1c0,0,12.1-3.3,12.1-14.9c0-11.6-8.8-20.4-32-20.4h-22c-7.7,0-12,4.4-12.1,11v55.1
				c0,6.6,4.4,11,12.1,11h25.3c23.1,0,33.1-9.9,33.1-22.6C1028.6,130.8,1012,127.5,1012,127.5z M982.3,109.9h9.9
				c4.4,0,6.6,2.2,6.6,5c0,2.8-2.2,5-6.6,5h-9.9V109.9z M995.5,149.6h-13.2v-12.1h13.2c5,0,7.7,2.8,7.7,6.1
				C1003.2,146.8,1000.5,149.6,995.5,149.6z"/>
		</g>
		<g>
			<path class="st2" d="M1071,114.3h-8.8v-13.2c0-6.6-4.4-11-12.1-11c-7.7,0-12.1,4.4-12.1,11v56.2c0,6.6,4.4,11,12.1,11h20.9
				c22,0,34.2-12.1,34.2-27C1105.2,126.4,1093.1,114.3,1071,114.3z M1071,148.5h-8.8v-14.3h8.8c5.5,0,8.8,3.3,8.8,7.2
				S1076.5,148.5,1071,148.5z M1124.5,90.1c-7.7,0-12.1,4.4-12.1,11v57.3c0,6.6,4.4,11,12.1,11s12.1-4.4,12.1-11v-57.3
				C1136.6,94.5,1132.2,90.1,1124.5,90.1z"/>
		</g>
		<g>
			<path class="st2" d="M1206.1,146.3h-30.8v-6.6h20.9c6.6,0,11-4.4,11-9.9c0-5.5-4.4-9.9-11-9.9h-20.9v-6.6h29.7
				c7.7,0,12.1-4.4,12.1-11c0-6.6-4.4-11-12.1-11h-41.9c-7.7,0-12.1,4.4-12.1,11v55.1c0,6.6,4.4,11,12.1,11h43
				c7.7,0,12.1-4.4,12.1-11C1218.2,150.7,1213.8,146.3,1206.1,146.3z"/>
		</g>
		<g>
			<path class="st2" d="M600.6,308.9l-9.6-57.9c-1.5-9.7-8.3-16.5-20-16.5c-10.3,0-16.7,6.2-20.7,16.5l-12.4,32.2h-1.4L524.1,251
				c-4.1-10.3-10.3-16.5-20.7-16.5c-11.7,0-18.3,6.9-20,16.5l-9.7,57.9c0,0-1.4,6.9-1.4,12.4c0,8.3,5.5,13.8,14.5,13.8
				c9,0,14.5-5.5,15.8-13.8l6.2-35.8h1.4l10.3,26.2c3.3,9,8.3,13.8,16.5,13.8c8.3,0,13.1-4.8,16.5-13.8l10.3-26.2h1.4l6.2,35.8
				c1.4,8.3,6.9,13.8,15.8,13.8c9,0,14.5-5.5,14.5-13.8C602,315.8,600.6,308.9,600.6,308.9z"/>
		</g>
		<g>
			<path class="st2" d="M697.7,319.5c-0.2-8.1-5.7-13.4-15.1-13.4H644v-8.3h26.2c8.3,0,13.8-5.5,13.8-12.4s-5.5-12.4-13.8-12.4H644
				v-8.3h37.2c9.7,0,15.2-5.5,15.2-13.8c0-8.3-5.5-13.8-15.2-13.8h-52.4c-9.6,0-15.2,5.5-15.2,13.8v68.9c0,8.3,5.5,13.8,15.2,13.8
				h53.7c9.5,0,15-5.3,15.1-13.4c0-0.1,0-0.3,0-0.4C697.7,319.8,697.7,319.6,697.7,319.5z"/>
		</g>
		<g>
			<path class="st2" d="M797.6,306.1h-1.4V251c0-8.3-5.5-13.8-15.1-13.8h-47.6c-9.6,0-15.2,5.5-15.2,13.8v33.1c0,12.4-8.3,22-8.3,22
				c-8.3,0-12.4,4.1-12.4,12.3v22.2c0,8.3,5.5,13.8,15.2,13.8s15.1-5.5,15.1-13.8v-6.9h51.7v6.9c0,8.3,5.5,13.8,15.2,13.8
				c9.7,0,15.2-5.5,15.2-13.8v-21.9C810,310.2,805.9,306.1,797.6,306.1z M765.9,306.1h-24.8v-1.4c0,0,7.6-8.3,7.6-20.7v-19.3h17.2
				V306.1z"/>
		</g>
		<g>
			<path class="st2" d="M888.6,282.7v-1.4c0,0,15.2-4.1,15.2-18.6s-11-25.5-40-25.5h-27.6c-9.6,0-15,5.5-15.2,13.8v68.9
				c0,8.3,5.5,13.8,15.2,13.8h31.7c28.9,0,41.3-12.4,41.3-28.3C909.3,286.8,888.6,282.7,888.6,282.7z M851.4,260.6h12.4
				c5.5,0,8.3,2.8,8.3,6.2c0,3.4-2.8,6.2-8.3,6.2h-12.4V260.6z M867.9,310.2h-16.5v-15.2h16.5c6.2,0,9.6,3.4,9.6,7.6
				C877.6,306.8,874.1,310.2,867.9,310.2z"/>
		</g>
		<g>
			<path class="st2" d="M989.9,306.1h-38.6v-8.3h26.2c8.3,0,13.8-5.5,13.8-12.4s-5.5-12.4-13.8-12.4h-26.2v-8.3h37.2
				c9.6,0,15.2-5.5,15.2-13.8c0-8.3-5.5-13.8-15.2-13.8h-52.4c-9.6,0-15.2,5.5-15.2,13.8v68.9c0,8.3,5.5,13.8,15.2,13.8h53.7
				c9.6,0,15.2-5.5,15.2-13.8S999.5,306.1,989.9,306.1z"/>
		</g>
		<g>
			<path class="st2" d="M1104.9,306.1h-1.4V251c0-8.3-5.5-13.8-15.1-13.8h-47.6c-9.6,0-15.2,5.5-15.2,13.8v33.1
				c0,12.4-8.3,22-8.3,22c-8.3,0-12.4,4.1-12.4,12.3v22.2c0,8.3,5.5,13.8,15.2,13.8s15.1-5.5,15.1-13.8v-6.9h51.7v6.9
				c0,8.3,5.5,13.8,15.2,13.8c9.7,0,15.2-5.5,15.2-13.8v-21.9C1117.3,310.2,1113.2,306.1,1104.9,306.1z M1073.2,306.1h-24.8v-1.4
				c0,0,7.6-8.3,7.6-20.7v-19.3h17.2V306.1z"/>
		</g>
		<g>
			<path class="st2" d="M1202.8,235.8c-8.3,0-13.1,4.8-19.3,13.8l-23.4,31.7h-1.4v-31.7c0-8.3-5.5-13.8-15.1-13.8
				c-9.6,0-15.2,5.5-15.2,13.8v71.7c0,8.1,5.5,13.8,15.2,13.8c8.3,0,13.1-4.8,19.3-13.8l23.4-31.7h1.4v31.7
				c0,8.3,5.5,13.8,15.1,13.8c9.7,0,15.2-5.5,15.2-13.8v-71.7C1218,241.5,1212.4,235.8,1202.8,235.8z"/>
		</g>
	</g>
</g>
</svg>
