<?xml version="1.0" encoding="utf-8"?>
<!-- Generator: Adobe Illustrator 22.0.1, SVG Export Plug-In . SVG Version: 6.00 Build 0)  -->
<svg version="1.1" id="Слой_1" xmlns="http://www.w3.org/2000/svg" xmlns:xlink="http://www.w3.org/1999/xlink" x="0px" y="0px"
	 viewBox="0 0 612.1 176" style="enable-background:new 0 0 612.1 176;" xml:space="preserve">
<style type="text/css">
	.st0{fill:#009245;}
</style>
<path class="st0" d="M133.8,136.5v39.2h-0.2l-27.8-28.2l0.1,27h-5.1v-39h0.3l27.8,28.6l-0.1-27.4H133.8z"/>
<path d="M156.1,167.7h-9.7l-2.7,6.6h-3.4l11-26.3h0.2l11,26.3h-3.9L156.1,167.7z M155,164.8l-3.6-9.2l-3.7,9.2H155z"/>
<path d="M171.4,171.1l15-22h-15.1c-0.1,0-0.2,0-0.3,0H167v3.2l13.4,0c0,0,0,0,0,0c-1.2,1.7-4.1,6.1-8.9,13.1l-5.9,8.8h21.2v-3.3
	H171.4z"/>
<path d="M205.5,167.7h-9.7l-2.7,6.6h-3.4l11-26.3h0.2l11,26.3h-3.9L205.5,167.7z M204.4,164.8l-3.6-9.2l-3.7,9.2H204.4z"/>
<path d="M230.7,174.4l-5.9-9.3c-0.2,0-0.5,0-0.8,0h-3.7v9.3h-3.4v-25.3h6.7c1.7,0,3.3,0.3,4.6,0.9c1.4,0.6,2.4,1.5,3.2,2.7
	c0.8,1.2,1.2,2.6,1.2,4.2c0,1.6-0.3,3-1,4.3c-0.7,1.3-1.7,2.3-3.2,3l6.4,10.2H230.7z M227.8,160.3c0.8-1,1.2-2,1.2-3.3
	c0-0.7-0.2-1.5-0.5-2.2c-0.3-0.7-0.9-1.3-1.6-1.8c-0.7-0.5-1.7-0.7-2.8-0.7h-3.9v9.4h3.7C225.7,161.8,227,161.3,227.8,160.3z"/>
<path class="st0" d="M281.3,174.4h-5.1v-16.6h-19.9v16.6h-5.1v-37.9h5.1v16.4h19.9v-16.4h5.1V174.4z"/>
<path d="M303.6,167.7h-9.7l-2.7,6.6h-3.4l11-26.3h0.2l11,26.3h-3.9L303.6,167.7z M302.4,164.8l-3.6-9.2l-3.7,9.2H302.4z"/>
<path d="M340,148.3v26.1h-3.4V158l-9.3,13.2h-0.1l-9.1-12.7v15.9h-3.3v-26.1h0l12.4,17.6L340,148.3L340,148.3z"/>
<path d="M350.6,160.5l0.4-0.7l10.3-10.8h4.4l-10.4,10.8l11,14.4H362l-9.2-12.3l-2.1,2.1l0,10.2h-3.5v-25.3h3.5v10.2L350.6,160.5z"/>
<path d="M370.2,155.3c1.2-2,2.7-3.6,4.7-4.7c2-1.2,4.1-1.8,6.4-1.8c2.3,0,4.4,0.6,6.4,1.8c2,1.2,3.6,2.8,4.7,4.7
	c1.2,2,1.8,4.1,1.8,6.4c0,2.3-0.6,4.5-1.7,6.5c-1.2,2-2.7,3.5-4.7,4.7c-2,1.2-4.1,1.7-6.4,1.7c-2.3,0-4.5-0.6-6.5-1.7
	c-2-1.1-3.5-2.7-4.7-4.7c-1.2-2-1.7-4.1-1.7-6.5C368.4,159.4,369,157.3,370.2,155.3z M373.2,166.6c0.8,1.5,2,2.6,3.4,3.5
	c1.5,0.9,3,1.3,4.8,1.3c1.7,0,3.3-0.4,4.7-1.3c1.4-0.9,2.6-2,3.4-3.5c0.8-1.5,1.2-3.1,1.2-4.8s-0.4-3.4-1.3-4.9
	c-0.8-1.5-2-2.7-3.4-3.5c-1.4-0.9-3-1.3-4.8-1.3c-1.7,0-3.3,0.4-4.8,1.3c-1.4,0.9-2.6,2.1-3.4,3.5c-0.8,1.5-1.2,3.1-1.2,4.9
	C371.9,163.5,372.3,165.1,373.2,166.6z"/>
<path d="M413.8,174.4l-5.9-9.3c-0.2,0-0.5,0-0.8,0h-3.7v9.3h-3.4v-25.3h6.7c1.7,0,3.3,0.3,4.6,0.9c1.4,0.6,2.4,1.5,3.2,2.7
	c0.8,1.2,1.2,2.6,1.2,4.2c0,1.6-0.3,3-1,4.3c-0.7,1.3-1.7,2.3-3.2,3l6.4,10.2H413.8z M410.9,160.3c0.8-1,1.2-2,1.2-3.3
	c0-0.7-0.2-1.5-0.5-2.2c-0.3-0.7-0.9-1.3-1.6-1.8c-0.7-0.5-1.7-0.7-2.8-0.7h-3.9v9.4h3.7C408.8,161.8,410.1,161.3,410.9,160.3z"/>
<path class="st0" d="M473.5,174.4h-17c-1.3,0.3-2.7,0.4-4,0.4c-3.5,0-6.7-0.9-9.7-2.6c-3-1.7-5.3-4-7-7c-1.7-3-2.6-6.2-2.6-9.8
	c0-3.5,0.9-6.7,2.6-9.6c1.7-3,4.1-5.3,7-7.1c3-1.8,6.2-2.6,9.7-2.6c3.5,0,6.7,0.9,9.6,2.6c3,1.8,5.3,4.1,7.1,7.1
	c1.8,3,2.6,6.2,2.6,9.6c0,2.7-0.5,5.2-1.6,7.7c-1,2.4-2.5,4.5-4.4,6.3h7.6V174.4z M440.3,162.7c1.3,2.2,3,3.9,5.2,5.2
	c2.2,1.3,4.6,1.9,7.2,1.9c2.6,0,5-0.6,7.1-1.9c2.1-1.3,3.8-3,5.1-5.2c1.2-2.2,1.9-4.6,1.9-7.3c0-2.6-0.6-5-1.9-7.2
	c-1.3-2.2-3-3.9-5.1-5.2c-2.2-1.3-4.5-1.9-7.1-1.9c-2.6,0-5,0.7-7.1,2c-2.2,1.3-3.9,3.1-5.1,5.3c-1.2,2.2-1.9,4.6-1.9,7.2
	C438.4,158.1,439,160.5,440.3,162.7z"/>
<path d="M484.1,168.4c0.5,0.9,1.3,1.6,2.2,2.1c0.9,0.5,1.9,0.8,3.1,0.8c1.2,0,2.2-0.3,3.2-0.8c0.9-0.5,1.7-1.2,2.2-2.1
	c0.5-0.9,0.8-1.9,0.8-3v-16.3h3.3v16.4c0,1.8-0.4,3.4-1.3,4.8c-0.8,1.4-2,2.5-3.4,3.2c-1.4,0.8-3.1,1.1-4.8,1.1
	c-1.7,0-3.3-0.4-4.8-1.1c-1.4-0.8-2.6-1.8-3.4-3.2c-0.8-1.4-1.2-3-1.2-4.8v-16.4h3.4v16.3C483.3,166.5,483.6,167.5,484.1,168.4z"/>
<path d="M519.7,174.4l-5.9-9.3c-0.2,0-0.5,0-0.8,0h-3.7v9.3h-3.4v-25.3h6.7c1.7,0,3.3,0.3,4.6,0.9c1.4,0.6,2.4,1.5,3.2,2.7
	c0.8,1.2,1.2,2.6,1.2,4.2c0,1.6-0.3,3-1,4.3c-0.7,1.3-1.7,2.3-3.2,3l6.4,10.2H519.7z M516.8,160.3c0.8-1,1.2-2,1.2-3.3
	c0-0.7-0.2-1.5-0.5-2.2c-0.3-0.7-0.9-1.3-1.6-1.8c-0.7-0.5-1.7-0.7-2.8-0.7h-3.9v9.4h3.7C514.7,161.8,516,161.3,516.8,160.3z"/>
<path d="M532.3,149.1v25.3h-3.4v-25.3H532.3z"/>
<path d="M542.9,149.1v22h12.9v3.3h-16.2v-25.3H542.9z"/>
<path d="M564.7,149.1v25.3h-3.4v-25.3H564.7z"/>
<path d="M582.1,152.4c-1-0.3-2-0.5-2.9-0.5c-1.4,0-2.5,0.3-3.3,0.9c-0.8,0.6-1.2,1.5-1.2,2.5c0,1,0.5,1.9,1.4,2.6
	c0.9,0.7,2.3,1.3,4,2c1.3,0.5,2.4,1,3.3,1.5c0.9,0.5,1.6,1.3,2.2,2.3c0.6,1,0.9,2.2,0.9,3.7c0,1.4-0.3,2.6-1,3.7
	c-0.7,1.1-1.6,2-2.9,2.6c-1.2,0.6-2.7,0.9-4.4,0.9c-1.6,0-3.1-0.3-4.5-0.8c-1.4-0.5-2.7-1.1-3.8-1.9l1.5-2.7
	c0.9,0.7,1.9,1.2,3.1,1.7c1.2,0.5,2.3,0.7,3.4,0.7c1.4,0,2.5-0.3,3.5-1c1-0.7,1.5-1.7,1.5-3.1c0-1.2-0.4-2.1-1.3-2.8
	c-0.9-0.7-2-1.3-3.6-1.9c-1.4-0.5-2.6-1.1-3.5-1.6c-0.9-0.5-1.8-1.2-2.4-2.1c-0.7-0.9-1-2-1-3.4c0-2,0.7-3.6,2.1-4.8
	c1.4-1.2,3.2-1.9,5.4-1.9c2.7,0,5.3,0.7,7.6,2l-1.3,2.6C584.1,153.1,583.1,152.7,582.1,152.4z"/>
<path d="M612.3,174.4h-3.4v-11.1h-13.2v11.1h-3.4v-25.3h3.4V160h13.2v-10.9h3.4V174.4z"/>
<polygon points="38.3,0 31.2,0 31.4,107.6 24,107.6 24,100.2 16.9,100.2 16.9,168.5 14.4,168.5 14.4,175.6 26.6,175.6 26.6,168.5 
	24,168.5 24,114.7 31.4,114.7 31.5,168.5 29,168.5 29,175.6 41.1,175.6 41.1,168.5 38.6,168.5 "/>
<polygon class="st0" points="9.5,85.6 16.9,96.1 16.9,96.2 17,96.2 24,96.2 24.1,96.2 24,96.1 23.7,17.7 16.6,17.7 16.9,85.9 
	9.5,75.5 2.4,75.5 2.4,168.5 -0.3,168.5 -0.3,175.6 12,175.6 12,168.5 9.5,168.5 "/>
<path class="st0" d="M66.5,168.5v-93l-14-47.8h-7.1l0.1,147.9h28.3v-7.1H66.5z M59.4,168.5h-6.9V51.9l6.9,23.6V168.5z"/>
</svg>
