<?xml version="1.0" encoding="utf-8"?>
<!-- Generator: Adobe Illustrator 22.0.1, SVG Export Plug-In . SVG Version: 6.00 Build 0)  -->
<svg version="1.1" id="Слой_1" xmlns="http://www.w3.org/2000/svg" xmlns:xlink="http://www.w3.org/1999/xlink" x="0px" y="0px"
	 viewBox="0 0 215.9 62" style="enable-background:new 0 0 215.9 62;" xml:space="preserve">
<style type="text/css">
	.st0{fill:#FFFFFF;}
</style>
<path class="st0" d="M47.3,48.1v13.8h-0.1l-9.8-10l0,9.5h-1.8V47.7h0.1l9.8,10.1l0-9.7H47.3z"/>
<path class="st0" d="M55.1,59.1h-3.4l-0.9,2.3h-1.2l3.9-9.3h0.1l3.9,9.3h-1.4L55.1,59.1z M54.7,58.1l-1.3-3.3l-1.3,3.3H54.7z"/>
<path class="st0" d="M60.5,60.3l5.3-7.7h-5.3c0,0-0.1,0-0.1,0H59v1.1l4.7,0c0,0,0,0,0,0c-0.4,0.6-1.5,2.1-3.1,4.6l-2.1,3.1h7.5v-1.2
	H60.5z"/>
<path class="st0" d="M72.6,59.1h-3.4l-0.9,2.3H67l3.9-9.3H71l3.9,9.3h-1.4L72.6,59.1z M72.2,58.1l-1.3-3.3l-1.3,3.3H72.2z"/>
<path class="st0" d="M81.4,61.5l-2.1-3.3c-0.1,0-0.2,0-0.3,0h-1.3v3.3h-1.2v-8.9h2.4c0.6,0,1.1,0.1,1.6,0.3c0.5,0.2,0.9,0.5,1.1,0.9
	c0.3,0.4,0.4,0.9,0.4,1.5c0,0.6-0.1,1.1-0.4,1.5c-0.2,0.5-0.6,0.8-1.1,1l2.2,3.6H81.4z M80.4,56.5c0.3-0.3,0.4-0.7,0.4-1.2
	c0-0.3-0.1-0.5-0.2-0.8c-0.1-0.3-0.3-0.5-0.6-0.6c-0.3-0.2-0.6-0.3-1-0.3h-1.4V57H79C79.7,57,80.1,56.9,80.4,56.5z"/>
<path class="st0" d="M99.3,61.5h-1.8v-5.9h-7v5.9h-1.8V48.1h1.8v5.8h7v-5.8h1.8V61.5z"/>
<path class="st0" d="M107.1,59.1h-3.4l-0.9,2.3h-1.2l3.9-9.3h0.1l3.9,9.3h-1.4L107.1,59.1z M106.7,58.1l-1.3-3.3l-1.3,3.3H106.7z"/>
<path class="st0" d="M120,52.3v9.2h-1.2v-5.8l-3.3,4.6h0l-3.2-4.5v5.6h-1.2v-9.2h0l4.4,6.2L120,52.3L120,52.3z"/>
<path class="st0" d="M123.7,56.6l0.1-0.2l3.6-3.8h1.5l-3.7,3.8l3.9,5.1h-1.5l-3.3-4.3l-0.8,0.7l0,3.6h-1.2v-8.9h1.2v3.6L123.7,56.6z
	"/>
<path class="st0" d="M130.6,54.8c0.4-0.7,1-1.3,1.7-1.7c0.7-0.4,1.5-0.6,2.3-0.6c0.8,0,1.6,0.2,2.3,0.6c0.7,0.4,1.3,1,1.7,1.7
	c0.4,0.7,0.6,1.5,0.6,2.3c0,0.8-0.2,1.6-0.6,2.3c-0.4,0.7-1,1.3-1.7,1.7c-0.7,0.4-1.5,0.6-2.3,0.6c-0.8,0-1.6-0.2-2.3-0.6
	c-0.7-0.4-1.3-1-1.7-1.6c-0.4-0.7-0.6-1.5-0.6-2.3C130,56.2,130.2,55.5,130.6,54.8z M131.7,58.7c0.3,0.5,0.7,0.9,1.2,1.2
	c0.5,0.3,1.1,0.5,1.7,0.5c0.6,0,1.2-0.1,1.7-0.4c0.5-0.3,0.9-0.7,1.2-1.2c0.3-0.5,0.4-1.1,0.4-1.7s-0.1-1.2-0.4-1.7
	c-0.3-0.5-0.7-0.9-1.2-1.2c-0.5-0.3-1.1-0.5-1.7-0.5c-0.6,0-1.2,0.2-1.7,0.5c-0.5,0.3-0.9,0.7-1.2,1.3c-0.3,0.5-0.4,1.1-0.4,1.7
	C131.2,57.6,131.4,58.2,131.7,58.7z"/>
<path class="st0" d="M146,61.5l-2.1-3.3c-0.1,0-0.2,0-0.3,0h-1.3v3.3h-1.2v-8.9h2.4c0.6,0,1.1,0.1,1.6,0.3c0.5,0.2,0.9,0.5,1.1,0.9
	c0.3,0.4,0.4,0.9,0.4,1.5c0,0.6-0.1,1.1-0.4,1.5c-0.2,0.5-0.6,0.8-1.1,1l2.2,3.6H146z M145,56.5c0.3-0.3,0.4-0.7,0.4-1.2
	c0-0.3-0.1-0.5-0.2-0.8c-0.1-0.3-0.3-0.5-0.6-0.6c-0.3-0.2-0.6-0.3-1-0.3h-1.4V57h1.3C144.2,57,144.7,56.9,145,56.5z"/>
<path class="st0" d="M167.1,61.5h-6c-0.5,0.1-0.9,0.1-1.4,0.1c-1.2,0-2.4-0.3-3.4-0.9c-1-0.6-1.9-1.4-2.5-2.5
	c-0.6-1-0.9-2.2-0.9-3.4c0-1.2,0.3-2.4,0.9-3.4c0.6-1,1.4-1.9,2.5-2.5c1-0.6,2.2-0.9,3.4-0.9c1.2,0,2.4,0.3,3.4,0.9
	c1,0.6,1.9,1.5,2.5,2.5c0.6,1,0.9,2.2,0.9,3.4c0,0.9-0.2,1.8-0.6,2.7c-0.4,0.8-0.9,1.6-1.6,2.2h2.7V61.5z M155.3,57.3
	c0.4,0.8,1,1.4,1.8,1.8c0.8,0.5,1.6,0.7,2.5,0.7s1.7-0.2,2.5-0.7c0.8-0.4,1.4-1.1,1.8-1.8c0.4-0.8,0.7-1.6,0.7-2.6
	c0-0.9-0.2-1.8-0.7-2.5c-0.4-0.8-1-1.4-1.8-1.8c-0.8-0.5-1.6-0.7-2.5-0.7c-0.9,0-1.7,0.2-2.5,0.7s-1.4,1.1-1.8,1.9
	c-0.4,0.8-0.7,1.6-0.7,2.5C154.7,55.7,154.9,56.6,155.3,57.3z"/>
<path class="st0" d="M170.8,59.4c0.2,0.3,0.4,0.6,0.8,0.8c0.3,0.2,0.7,0.3,1.1,0.3c0.4,0,0.8-0.1,1.1-0.3c0.3-0.2,0.6-0.4,0.8-0.8
	c0.2-0.3,0.3-0.7,0.3-1.1v-5.8h1.2v5.8c0,0.6-0.1,1.2-0.4,1.7c-0.3,0.5-0.7,0.9-1.2,1.1c-0.5,0.3-1.1,0.4-1.7,0.4
	c-0.6,0-1.2-0.1-1.7-0.4c-0.5-0.3-0.9-0.6-1.2-1.1c-0.3-0.5-0.4-1-0.4-1.7v-5.8h1.2v5.8C170.5,58.7,170.6,59.1,170.8,59.4z"/>
<path class="st0" d="M183.3,61.5l-2.1-3.3c-0.1,0-0.2,0-0.3,0h-1.3v3.3h-1.2v-8.9h2.4c0.6,0,1.1,0.1,1.6,0.3
	c0.5,0.2,0.9,0.5,1.1,0.9c0.3,0.4,0.4,0.9,0.4,1.5c0,0.6-0.1,1.1-0.4,1.5c-0.2,0.5-0.6,0.8-1.1,1l2.2,3.6H183.3z M182.3,56.5
	c0.3-0.3,0.4-0.7,0.4-1.2c0-0.3-0.1-0.5-0.2-0.8c-0.1-0.3-0.3-0.5-0.6-0.6c-0.3-0.2-0.6-0.3-1-0.3h-1.4V57h1.3
	C181.6,57,182,56.9,182.3,56.5z"/>
<path class="st0" d="M187.8,52.6v8.9h-1.2v-8.9H187.8z"/>
<path class="st0" d="M191.5,52.6v7.7h4.5v1.2h-5.7v-8.9H191.5z"/>
<path class="st0" d="M199.2,52.6v8.9H198v-8.9H199.2z"/>
<path class="st0" d="M205.3,53.7c-0.4-0.1-0.7-0.2-1-0.2c-0.5,0-0.9,0.1-1.2,0.3c-0.3,0.2-0.4,0.5-0.4,0.9c0,0.4,0.2,0.7,0.5,0.9
	c0.3,0.2,0.8,0.5,1.4,0.7c0.5,0.2,0.8,0.3,1.2,0.5c0.3,0.2,0.6,0.5,0.8,0.8c0.2,0.3,0.3,0.8,0.3,1.3c0,0.5-0.1,0.9-0.4,1.3
	c-0.2,0.4-0.6,0.7-1,0.9c-0.4,0.2-1,0.3-1.5,0.3c-0.6,0-1.1-0.1-1.6-0.3c-0.5-0.2-1-0.4-1.3-0.7l0.5-0.9c0.3,0.2,0.7,0.4,1.1,0.6
	c0.4,0.2,0.8,0.2,1.2,0.2c0.5,0,0.9-0.1,1.3-0.4c0.4-0.2,0.5-0.6,0.5-1.1c0-0.4-0.1-0.7-0.4-1s-0.7-0.5-1.3-0.7
	c-0.5-0.2-0.9-0.4-1.3-0.6c-0.3-0.2-0.6-0.4-0.9-0.7c-0.2-0.3-0.4-0.7-0.4-1.2c0-0.7,0.2-1.3,0.7-1.7c0.5-0.4,1.1-0.7,1.9-0.7
	c1,0,1.9,0.2,2.7,0.7l-0.5,0.9C206,54,205.7,53.8,205.3,53.7z"/>
<path class="st0" d="M216,61.5h-1.2v-3.9h-4.7v3.9h-1.2v-8.9h1.2v3.9h4.7v-3.9h1.2V61.5z"/>
<polygon class="st0" points="13.6,0 11.1,0 11.2,37.9 8.6,37.9 8.6,35.3 6.1,35.3 6.1,59.4 5.2,59.4 5.2,61.9 9.5,61.9 9.5,59.4 
	8.6,59.4 8.6,40.4 11.2,40.4 11.2,59.4 10.3,59.4 10.3,61.9 14.6,61.9 14.6,59.4 13.7,59.4 "/>
<polygon class="st0" points="3.5,30.2 6.1,33.9 6.1,33.9 6.1,33.9 8.6,33.9 8.6,33.9 8.6,33.9 8.5,6.3 6,6.3 6.1,30.3 3.5,26.6 
	1,26.6 1,59.4 0,59.4 0,61.9 4.3,61.9 4.3,59.4 3.5,59.4 "/>
<path class="st0" d="M23.5,59.4V26.6L18.6,9.8h-2.5l0,52.2h10v-2.5H23.5z M21,59.4h-2.4V18.3l2.4,8.3V59.4z"/>
</svg>
